<svg width="24" height="24" viewBox="0 0 24 24" fill="none" xmlns="http://www.w3.org/2000/svg">
<path d="M12 21C7.0293 21 3 16.9707 3 12C3 7.0293 7.0293 3 12 3C16.9707 3 21 7.0293 21 12C21 16.9707 16.9707 21 12 21ZM12 19.2C13.9096 19.2 15.7409 18.4414 17.0912 17.0912C18.4414 15.7409 19.2 13.9096 19.2 12C19.2 10.0904 18.4414 8.25909 17.0912 6.90883C15.7409 5.55857 13.9096 4.8 12 4.8C10.0904 4.8 8.25909 5.55857 6.90883 6.90883C5.55857 8.25909 4.8 10.0904 4.8 12C4.8 13.9096 5.55857 15.7409 6.90883 17.0912C8.25909 18.4414 10.0904 19.2 12 19.2ZM8.4 12.9H15.6C15.6 13.8548 15.2207 14.7705 14.5456 15.4456C13.8705 16.1207 12.9548 16.5 12 16.5C11.0452 16.5 10.1295 16.1207 9.45442 15.4456C8.77928 14.7705 8.4 13.8548 8.4 12.9ZM8.4 11.1C8.04196 11.1 7.69858 10.9578 7.44541 10.7046C7.19223 10.4514 7.05 10.108 7.05 9.75C7.05 9.39196 7.19223 9.04858 7.44541 8.79541C7.69858 8.54223 8.04196 8.4 8.4 8.4C8.75804 8.4 9.10142 8.54223 9.35459 8.79541C9.60777 9.04858 9.75 9.39196 9.75 9.75C9.75 10.108 9.60777 10.4514 9.35459 10.7046C9.10142 10.9578 8.75804 11.1 8.4 11.1ZM15.6 11.1C15.242 11.1 14.8986 10.9578 14.6454 10.7046C14.3922 10.4514 14.25 10.108 14.25 9.75C14.25 9.39196 14.3922 9.04858 14.6454 8.79541C14.8986 8.54223 15.242 8.4 15.6 8.4C15.958 8.4 16.3014 8.54223 16.5546 8.79541C16.8078 9.04858 16.95 9.39196 16.95 9.75C16.95 10.108 16.8078 10.4514 16.5546 10.7046C16.3014 10.9578 15.958 11.1 15.6 11.1Z" fill="#E85E55"/>
</svg>
