<svg xmlns="http://www.w3.org/2000/svg" width="18" height="18" viewBox="0 0 18 18" fill="none">
<path d="M13.7514 13.7543H11.7523V10.6216C11.7523 9.87465 11.7371 8.91337 10.7105 8.91337C9.66826 8.91337 9.50904 9.72623 9.50904 10.5665V13.7543H7.50992V7.3125H9.43029V8.19053H9.45616C9.72451 7.68428 10.377 7.14994 11.3518 7.14994C13.3774 7.14994 13.752 8.4831 13.752 10.2184L13.7514 13.7543ZM5.25206 6.43106C4.60856 6.43106 4.09163 5.91019 4.09163 5.2695C4.09163 4.62937 4.60912 4.10906 5.25206 4.10906C5.89331 4.10906 6.41306 4.62937 6.41306 5.2695C6.41306 5.91019 5.89275 6.43106 5.25206 6.43106ZM6.25444 13.7543H4.24969V7.3125H6.25444V13.7543ZM14.7515 2.25H3.24619C2.6955 2.25 2.25 2.68538 2.25 3.22256V14.7775C2.25 15.3152 2.6955 15.75 3.24619 15.75H14.7499C15.3 15.75 15.75 15.3152 15.75 14.7775V3.22256C15.75 2.68538 15.3 2.25 14.7499 2.25H14.7515Z" fill="#5A4F48"/>
</svg>
