<svg width="24" height="24" viewBox="0 0 24 24" fill="none" xmlns="http://www.w3.org/2000/svg">
<path d="M11.9996 9.79498C12.8249 8.95168 13.8995 8.39998 15.1496 8.39998C16.4624 8.39998 17.7215 8.92149 18.6498 9.8498C19.5781 10.7781 20.0996 12.0372 20.0996 13.35V20.1H18.2996V13.35C18.2996 12.5145 17.9677 11.7133 17.377 11.1226C16.7863 10.5318 15.985 10.2 15.1496 10.2C14.3142 10.2 13.513 10.5318 12.9222 11.1226C12.3315 11.7133 11.9996 12.5145 11.9996 13.35V20.1H10.1996V8.84998H11.9996V9.79498ZM5.69961 7.04998C5.34157 7.04998 4.99819 6.90774 4.74502 6.65457C4.49184 6.4014 4.34961 6.05802 4.34961 5.69998C4.34961 5.34193 4.49184 4.99856 4.74502 4.74538C4.99819 4.49221 5.34157 4.34998 5.69961 4.34998C6.05765 4.34998 6.40103 4.49221 6.6542 4.74538C6.90738 4.99856 7.04961 5.34193 7.04961 5.69998C7.04961 6.05802 6.90738 6.4014 6.6542 6.65457C6.40103 6.90774 6.05765 7.04998 5.69961 7.04998ZM4.79961 8.84998H6.59961V20.1H4.79961V8.84998Z" fill="white"/>
</svg>
