<svg width="12" height="12" viewBox="0 0 12 12" fill="none" xmlns="http://www.w3.org/2000/svg">
<path d="M8.69922 4.2H9.59922C9.71857 4.2 9.83303 4.24741 9.91742 4.3318C10.0018 4.4162 10.0492 4.53066 10.0492 4.65V10.05C10.0492 10.1694 10.0018 10.2838 9.91742 10.3682C9.83303 10.4526 9.71857 10.5 9.59922 10.5H2.39922C2.27987 10.5 2.16541 10.4526 2.08102 10.3682C1.99663 10.2838 1.94922 10.1694 1.94922 10.05V4.65C1.94922 4.53066 1.99663 4.4162 2.08102 4.3318C2.16541 4.24741 2.27987 4.2 2.39922 4.2H3.29922V3.75C3.29922 3.03392 3.58368 2.34716 4.09003 1.84081C4.59638 1.33447 5.28313 1.05 5.99922 1.05C6.7153 1.05 7.40206 1.33447 7.90841 1.84081C8.41476 2.34716 8.69922 3.03392 8.69922 3.75V4.2ZM5.54922 7.6794V8.7H6.44922V7.6794C6.6208 7.58034 6.75489 7.42743 6.83071 7.2444C6.90653 7.06136 6.91983 6.85841 6.86855 6.66704C6.81727 6.47567 6.70428 6.30657 6.5471 6.18596C6.38992 6.06535 6.19734 5.99998 5.99922 5.99998C5.8011 5.99998 5.60851 6.06535 5.45133 6.18596C5.29415 6.30657 5.18116 6.47567 5.12989 6.66704C5.07861 6.85841 5.09191 7.06136 5.16773 7.2444C5.24354 7.42743 5.37764 7.58034 5.54922 7.6794ZM7.79922 4.2V3.75C7.79922 3.27261 7.60958 2.81478 7.27201 2.47721C6.93445 2.13965 6.47661 1.95 5.99922 1.95C5.52183 1.95 5.06399 2.13965 4.72643 2.47721C4.38886 2.81478 4.19922 3.27261 4.19922 3.75V4.2H7.79922Z" fill="#77685E"/>
</svg>
