<svg xmlns="http://www.w3.org/2000/svg" width="24" height="24" viewBox="0 0 24 24" fill="none">
<path d="M14.8784 10.1505C14.4881 9.78072 14.237 9.28778 14.1674 8.75461L13.8047 5.97991L11.3477 7.31731C10.8753 7.57473 10.3286 7.6615 9.79974 7.56301L7.04934 7.05001L7.56234 9.80041C7.66083 10.3293 7.57406 10.876 7.31664 11.3484L5.97924 13.8054L8.75394 14.1681C9.28679 14.2379 9.77938 14.489 10.1489 14.8791L12.0731 16.9104L13.2755 14.3841C13.5063 13.8986 13.8972 13.5074 14.3825 13.2762L16.9097 12.0738L14.8784 10.1505ZM14.9009 15.1572L12.9092 19.3422C12.8716 19.4213 12.8152 19.4901 12.745 19.5426C12.6748 19.5951 12.5929 19.6297 12.5063 19.6434C12.4197 19.6571 12.3311 19.6496 12.2481 19.6214C12.1652 19.5932 12.0903 19.5453 12.0299 19.4817L8.84214 16.1166C8.75698 16.0268 8.64355 15.969 8.52084 15.9528L3.92454 15.3516C3.8377 15.3402 3.75495 15.3078 3.68342 15.2572C3.61189 15.2067 3.55373 15.1395 3.51396 15.0614C3.47419 14.9834 3.45399 14.8969 3.45512 14.8093C3.45625 14.7217 3.47867 14.6357 3.52044 14.5587L5.73624 10.4871C5.79515 10.3782 5.81485 10.2524 5.79204 10.1307L4.94334 5.57401C4.92722 5.48777 4.93237 5.39889 4.95833 5.31507C4.98428 5.23126 5.03027 5.15503 5.09232 5.09299C5.15436 5.03095 5.23059 4.98496 5.3144 4.959C5.39822 4.93304 5.48709 4.9279 5.57334 4.94401L10.13 5.79271C10.2517 5.81552 10.3776 5.79582 10.4864 5.73691L14.558 3.52111C14.6351 3.47933 14.7212 3.45693 14.8088 3.45585C14.8964 3.45477 14.983 3.47504 15.0611 3.51491C15.1392 3.55478 15.2063 3.61306 15.2568 3.6847C15.3073 3.75634 15.3396 3.8392 15.3509 3.92611L15.9521 8.52151C15.9683 8.64422 16.0261 8.75765 16.1159 8.84281L19.481 12.0306C19.5446 12.0909 19.5926 12.1658 19.6207 12.2488C19.6489 12.3318 19.6564 12.4204 19.6427 12.507C19.629 12.5935 19.5944 12.6755 19.5419 12.7457C19.4894 12.8159 19.4207 12.8722 19.3415 12.9099L15.1565 14.9016C15.0445 14.9549 14.9542 15.0452 14.9009 15.1572ZM15.6182 16.8915L16.8908 15.6189L20.7095 19.4367L19.436 20.7102L15.6182 16.8915Z" fill="#3A8E9C"/>
</svg>
