<svg width="21" height="20" viewBox="0 0 21 20" fill="none" xmlns="http://www.w3.org/2000/svg">
<path d="M10.4998 3.25C9.90303 3.25 9.33073 3.48705 8.90877 3.90901C8.48682 4.33097 8.24977 4.90326 8.24977 5.5V8.5C8.24977 9.09674 8.48682 9.66903 8.90877 10.091C9.33073 10.5129 9.90303 10.75 10.4998 10.75C11.0965 10.75 11.6688 10.5129 12.0908 10.091C12.5127 9.66903 12.7498 9.09674 12.7498 8.5V5.5C12.7498 4.90326 12.5127 4.33097 12.0908 3.90901C11.6688 3.48705 11.0965 3.25 10.4998 3.25ZM10.4998 1.75C10.9922 1.75 11.4799 1.847 11.9348 2.03545C12.3898 2.22391 12.8032 2.50013 13.1514 2.84835C13.4996 3.19657 13.7759 3.60997 13.9643 4.06494C14.1528 4.51991 14.2498 5.00754 14.2498 5.5V8.5C14.2498 9.49456 13.8547 10.4484 13.1514 11.1517C12.4482 11.8549 11.4943 12.25 10.4998 12.25C9.5052 12.25 8.55138 11.8549 7.84811 11.1517C7.14485 10.4484 6.74977 9.49456 6.74977 8.5V5.5C6.74977 4.50544 7.14485 3.55161 7.84811 2.84835C8.55138 2.14509 9.5052 1.75 10.4998 1.75ZM3.79102 9.25H5.30227C5.48398 10.4986 6.10917 11.64 7.06344 12.4655C8.01771 13.2909 9.23727 13.7452 10.499 13.7452C11.7608 13.7452 12.9803 13.2909 13.9346 12.4655C14.8889 11.64 15.514 10.4986 15.6958 9.25H17.2078C17.0372 10.7715 16.3547 12.19 15.2722 13.2727C14.1896 14.3553 12.7713 15.038 11.2498 15.2087V18.25H9.74977V15.2087C8.22812 15.0382 6.8096 14.3556 5.7269 13.2729C4.64419 12.1902 3.96158 10.7716 3.79102 9.25Z" fill="#1C1C1E"/>
</svg>
