<svg xmlns="http://www.w3.org/2000/svg" width="21" height="20" viewBox="0 0 21 20" fill="none">
<path d="M9.67489 2.57501L17.0991 3.63626L18.1596 11.0613L11.2656 17.9553C11.125 18.0959 10.9343 18.1749 10.7354 18.1749C10.5365 18.1749 10.3458 18.0959 10.2051 17.9553L2.78014 10.5303C2.63953 10.3896 2.56055 10.1989 2.56055 10C2.56055 9.80114 2.63953 9.61041 2.78014 9.46976L9.67489 2.57501ZM10.2051 4.16651L4.37089 10L10.7354 16.3638L16.5689 10.5303L15.7739 4.96151L10.2051 4.16651ZM11.7951 8.93951C11.5138 8.65805 11.3557 8.27635 11.3558 7.87837C11.3559 7.68131 11.3947 7.48619 11.4701 7.30415C11.5456 7.12211 11.6561 6.9567 11.7955 6.81739C11.9349 6.67807 12.1003 6.56757 12.2824 6.49219C12.4645 6.41681 12.6596 6.37803 12.8567 6.37807C13.2546 6.37814 13.6363 6.5363 13.9176 6.81776C14.199 7.09922 14.357 7.48093 14.357 7.8789C14.3569 8.27688 14.1987 8.65853 13.9173 8.93989C13.6358 9.22125 13.2541 9.37928 12.8561 9.37921C12.4581 9.37914 12.0765 9.22097 11.7951 8.93951Z" fill="#1C1C1E"/>
</svg>
