<svg xmlns="http://www.w3.org/2000/svg" width="25" height="24" viewBox="0 0 25 24" fill="none">
<path d="M19.305 12.0873L20.6829 14.475C21.5532 15.9816 21.0366 17.9085 19.5309 18.7779C19.0512 19.0542 18.5085 19.2 17.9559 19.2H16.0992V21.45L11.5992 18.3L16.0992 15.15V17.4H17.955C18.1917 17.4 18.4248 17.337 18.63 17.2191C19.2762 16.8465 19.4967 16.0203 19.125 15.375L17.7462 12.9873L19.305 12.0873ZM8.27282 9.4206L8.74982 14.8926L6.80222 13.7676L5.87432 15.375C5.75552 15.5802 5.69342 15.8133 5.69342 16.05C5.69342 16.7952 6.29732 17.4 7.04342 17.4H9.79922V19.2H7.04342C5.30372 19.2 3.89342 17.7897 3.89342 16.05C3.89342 15.4974 4.03922 14.9538 4.31552 14.475L5.24252 12.8667L3.29492 11.7426L8.27192 9.4206H8.27282ZM14.0742 3.8721C14.553 4.1484 14.9508 4.5462 15.2271 5.025L16.1541 6.6315L18.1035 5.5065L17.6265 10.9794L12.6477 8.6574L14.5962 7.5324L13.6683 5.925C13.5495 5.7198 13.3794 5.5497 13.1742 5.4309C12.5289 5.0583 11.7027 5.2797 11.3301 5.925L9.95132 8.3127L8.39252 7.4127L9.77222 5.025C10.6416 3.5184 12.5685 3.0018 14.0751 3.8721H14.0742Z" fill="#E85E55"/>
</svg>
