<svg xmlns="http://www.w3.org/2000/svg" width="24" height="24" viewBox="0 0 24 24" fill="none">
<path d="M8.84898 19.2H15.1526C14.5572 20.6241 13.4249 21.7564 12.0008 22.3518C10.5767 21.7564 9.44439 20.6241 8.84898 19.2ZM17.4008 14.5245L19.2008 16.5657V18.3H4.80078V16.5657L6.60078 14.5245V9.30002C6.60078 6.16532 8.85438 3.49772 12.0008 2.50952C15.1472 3.49772 17.4008 6.16532 17.4008 9.30002V14.5245ZM12.0008 11.1C12.4782 11.1 12.936 10.9104 13.2736 10.5728C13.6111 10.2352 13.8008 9.77741 13.8008 9.30002C13.8008 8.82263 13.6111 8.3648 13.2736 8.02723C12.936 7.68966 12.4782 7.50002 12.0008 7.50002C11.5234 7.50002 11.0656 7.68966 10.728 8.02723C10.3904 8.3648 10.2008 8.82263 10.2008 9.30002C10.2008 9.77741 10.3904 10.2352 10.728 10.5728C11.0656 10.9104 11.5234 11.1 12.0008 11.1Z" fill="#5A4F48"/>
</svg>
