<svg xmlns="http://www.w3.org/2000/svg" width="19" height="18" viewBox="0 0 19 18" fill="none">
<path d="M9.5 15.75C5.77198 15.75 2.75 12.728 2.75 9C2.75 5.27198 5.77198 2.25 9.5 2.25C13.228 2.25 16.25 5.27198 16.25 9C16.25 12.728 13.228 15.75 9.5 15.75ZM9.5 14.4C10.9322 14.4 12.3057 13.8311 13.3184 12.8184C14.3311 11.8057 14.9 10.4322 14.9 9C14.9 7.56783 14.3311 6.19432 13.3184 5.18162C12.3057 4.16893 10.9322 3.6 9.5 3.6C8.06783 3.6 6.69432 4.16893 5.68162 5.18162C4.66893 6.19432 4.1 7.56783 4.1 9C4.1 10.4322 4.66893 11.8057 5.68162 12.8184C6.69432 13.8311 8.06783 14.4 9.5 14.4ZM8.82703 11.7L5.963 8.83598L6.91745 7.88153L8.82703 9.7911L12.6448 5.97263L13.5999 6.92707L8.82703 11.7Z" fill="#169E50"/>
</svg>
