<svg width="24" height="24" viewBox="0 0 24 24" fill="none" xmlns="http://www.w3.org/2000/svg">
<path d="M13.0082 16.5207L9.22909 14.4597C8.7357 14.9871 8.09507 15.354 7.39045 15.5126C6.68583 15.6712 5.9498 15.6141 5.27801 15.3489C4.60623 15.0837 4.02975 14.6225 3.6235 14.0254C3.21724 13.4282 3 12.7227 3 12.0004C3 11.2782 3.21724 10.5726 3.6235 9.97548C4.02975 9.37832 4.60623 8.91716 5.27801 8.65194C5.9498 8.38672 6.68583 8.32969 7.39045 8.48828C8.09507 8.64686 8.7357 9.01372 9.22909 9.54118L13.0091 7.48018C12.7945 6.63064 12.8971 5.732 13.2977 4.95271C13.6982 4.17341 14.3693 3.56696 15.185 3.24703C16.0007 2.9271 16.9051 2.91565 17.7287 3.21484C18.5522 3.51402 19.2384 4.1033 19.6586 4.87221C20.0787 5.64112 20.204 6.53687 20.011 7.39157C19.818 8.24626 19.3198 9.00121 18.61 9.5149C17.9002 10.0286 17.0273 10.2658 16.1551 10.182C15.2829 10.0982 14.4712 9.69913 13.8722 9.05968L10.0922 11.1207C10.2373 11.6979 10.2373 12.3021 10.0922 12.8793L13.8713 14.9403C14.4703 14.3008 15.282 13.9018 16.1542 13.818C17.0264 13.7342 17.8993 13.9713 18.6091 14.485C19.3189 14.9987 19.8171 15.7537 20.0101 16.6084C20.2031 17.4631 20.0778 18.3588 19.6577 19.1277C19.2375 19.8967 18.5513 20.4859 17.7278 20.7851C16.9042 21.0843 15.9998 21.0729 15.1841 20.7529C14.3684 20.433 13.6973 19.8265 13.2968 19.0472C12.8962 18.2679 12.7936 17.3693 13.0082 16.5198V16.5207ZM6.60019 13.8C7.07758 13.8 7.53541 13.6103 7.87298 13.2728C8.21054 12.9352 8.40019 12.4774 8.40019 12C8.40019 11.5226 8.21054 11.0647 7.87298 10.7272C7.53541 10.3896 7.07758 10.2 6.60019 10.2C6.1228 10.2 5.66496 10.3896 5.32739 10.7272C4.98983 11.0647 4.80019 11.5226 4.80019 12C4.80019 12.4774 4.98983 12.9352 5.32739 13.2728C5.66496 13.6103 6.1228 13.8 6.60019 13.8ZM16.5002 8.39998C16.9776 8.39998 17.4354 8.21033 17.773 7.87277C18.1105 7.5352 18.3002 7.07737 18.3002 6.59998C18.3002 6.12259 18.1105 5.66475 17.773 5.32718C17.4354 4.98962 16.9776 4.79998 16.5002 4.79998C16.0228 4.79998 15.565 4.98962 15.2274 5.32718C14.8898 5.66475 14.7002 6.12259 14.7002 6.59998C14.7002 7.07737 14.8898 7.5352 15.2274 7.87277C15.565 8.21033 16.0228 8.39998 16.5002 8.39998ZM16.5002 19.2C16.9776 19.2 17.4354 19.0103 17.773 18.6728C18.1105 18.3352 18.3002 17.8774 18.3002 17.4C18.3002 16.9226 18.1105 16.4647 17.773 16.1272C17.4354 15.7896 16.9776 15.6 16.5002 15.6C16.0228 15.6 15.565 15.7896 15.2274 16.1272C14.8898 16.4647 14.7002 16.9226 14.7002 17.4C14.7002 17.8774 14.8898 18.3352 15.2274 18.6728C15.565 19.0103 16.0228 19.2 16.5002 19.2Z" fill="#169E50"/>
</svg>
