<svg xmlns="http://www.w3.org/2000/svg" width="24" height="24" viewBox="0 0 24 24" fill="none">
<path d="M12 3C16.968 3 21 7.032 21 12C21 16.968 16.968 21 12 21C7.032 21 3 16.968 3 12C3 7.032 7.032 3 12 3ZM12 19.2C15.9843 19.2 19.2 15.9843 19.2 12C19.2 8.0157 15.9843 4.8 12 4.8C11.0541 4.79882 10.1174 4.98424 9.24328 5.34565C8.3692 5.70707 7.57501 6.23737 6.90619 6.90619C6.23737 7.57501 5.70707 8.3692 5.34565 9.24328C4.98424 10.1174 4.79882 11.0541 4.8 12C4.8 15.9843 8.0157 19.2 12 19.2ZM12 17.4C9.012 17.4 6.6 14.988 6.6 12C6.6 9.012 9.012 6.6 12 6.6C14.988 6.6 17.4 9.012 17.4 12C17.4 14.988 14.988 17.4 12 17.4ZM12 10.2C11.01 10.2 10.2 11.01 10.2 12C10.2 12.99 11.01 13.8 12 13.8C12.99 13.8 13.8 12.99 13.8 12C13.8 11.01 12.99 10.2 12 10.2Z" fill="#5A4F48"/>
</svg>
