<svg xmlns="http://www.w3.org/2000/svg" width="32" height="32" viewBox="0 0 32 32" fill="none">
<path d="M18.4004 18.7024V28H6.40039C6.40002 26.5347 6.7351 25.0887 7.37995 23.7729C8.0248 22.457 8.96232 21.3063 10.1207 20.4088C11.279 19.5114 12.6274 18.8909 14.0626 18.5952C15.4977 18.2994 16.9816 18.3361 18.4004 18.7024ZM16.0004 17.2C12.0224 17.2 8.80039 13.978 8.80039 9.99999C8.80039 6.02199 12.0224 2.79999 16.0004 2.79999C19.9784 2.79999 23.2004 6.02199 23.2004 9.99999C23.2004 13.978 19.9784 17.2 16.0004 17.2ZM23.2004 22V18.4H25.6004V22H29.2004V24.4H25.6004V28H23.2004V24.4H19.6004V22H23.2004Z" fill="#77685E"/>
</svg>
