<svg xmlns="http://www.w3.org/2000/svg" width="25" height="24" viewBox="0 0 25 24" fill="none">
<path d="M16.0996 4.8C16.5964 4.8 16.9996 5.2032 16.9996 5.7V9.48L21.6913 6.195C21.8947 6.0528 22.1755 6.1023 22.3186 6.3066C22.3708 6.3822 22.3996 6.4722 22.3996 6.564V17.436C22.3996 17.6844 22.198 17.886 21.9496 17.886C21.8569 17.886 21.7669 17.8572 21.6913 17.805L16.9996 14.52V18.3C16.9996 18.7968 16.5964 19.2 16.0996 19.2H3.49961C3.00281 19.2 2.59961 18.7968 2.59961 18.3V5.7C2.59961 5.2032 3.00281 4.8 3.49961 4.8H16.0996ZM15.1996 6.6H4.39961V17.4H15.1996V6.6ZM9.79961 8.4L13.3996 12H10.6996V15.6H8.89961V12H6.19961L9.79961 8.4ZM20.5996 9.1569L16.9996 11.6769V12.3231L20.5996 14.8431V9.156V9.1569Z" fill="#3A8E9C"/>
</svg>
