<svg width="24" height="24" viewBox="0 0 24 24" fill="none" xmlns="http://www.w3.org/2000/svg">
<path d="M18.8454 7.49555C18.777 7.22735 18.5826 7.02485 18.3603 6.96275C17.967 6.85205 16.05 6.60005 12 6.60005C7.95 6.60005 6.0348 6.85205 5.6379 6.96275C5.4183 7.02395 5.2239 7.22645 5.1546 7.49555C5.0565 7.87715 4.8 9.47645 4.8 12C4.8 14.5236 5.0565 16.122 5.1546 16.5054C5.223 16.7727 5.4174 16.9752 5.6388 17.0364C6.0348 17.148 7.95 17.4 12 17.4C16.05 17.4 17.9661 17.148 18.3621 17.0373C18.5817 16.9761 18.7761 16.7736 18.8454 16.5045C18.9435 16.1229 19.2 14.52 19.2 12C19.2 9.48005 18.9435 7.87805 18.8454 7.49555ZM20.5887 7.04825C21 8.65205 21 12 21 12C21 12 21 15.348 20.5887 16.9518C20.3601 17.8383 19.6914 18.5358 18.8445 18.7716C17.3064 19.2 12 19.2 12 19.2C12 19.2 6.6963 19.2 5.1555 18.7716C4.305 18.5322 3.6372 17.8356 3.4113 16.9518C3 15.348 3 12 3 12C3 12 3 8.65205 3.4113 7.04825C3.6399 6.16175 4.3086 5.46425 5.1555 5.22845C6.6963 4.80005 12 4.80005 12 4.80005C12 4.80005 17.3064 4.80005 18.8445 5.22845C19.695 5.46785 20.3628 6.16445 20.5887 7.04825ZM10.2 15.15V8.85005L15.6 12L10.2 15.15Z" fill="white"/>
</svg>
